# xmcd CD database file
#
# Track frame offsets:
#	150
#	21124
#	46743
#	67346
#	82887
#	100747
#	118507
#	148395
#	162520
#	194326
#	207180
#	224943
#	246107
#	262730
#	277020
#	288139
#	312090
#
# Disc length: 4442 seconds
#
# Revision: 1
# Processed by: cddbd v1.4PL0 Copyright (c) Steve Scherf et al.
# Submitted via: CDex 1.40Beta9
#
DISCID=02115811
DTITLE=Good Whiskey Blues - From The State Of Teennessee (vol. 4)
DYEAR=1900
DGENRE=Blues
TTITLE0=Kenny Lee - Blues Party
TTITLE1=Bird Dogs - Bye Bye Baby
TTITLE2=Rocky Shelton - Twist Of Fate
TTITLE3=Mary-Ann Brandon - It's A Dirty Job
TTITLE4=Fred James - Everybody's Getting' Them Some
TTITLE5=Kenny Lee - Country Boy
TTITLE6=Billy C. Farlow - Trouble's Come To The Delta
TTITLE7=Billy Earl McLelland - Highway Blues
TTITLE8=Zip Gibson - Showing In Memphis
TTITLE9=Billy Earl McLelland - Tall Girl In A Short Dress
TTITLE10=Indigenous - Now That You're Gone
TTITLE11=Jimmy Dillon - One Wrong Move
TTITLE12=Paris Slim - Molly's Backyard Blues
TTITLE13=Rhithmtown-Jive - Magnatone
TTITLE14=Dan Hayes - She Says She Will
TTITLE15=Little Jonny and The Giants - Stranger Blues
TTITLE16=Trichotic - Something Is Wrong
EXTD=ID3G: 0
EXTT0=
EXTT1=
EXTT2=
EXTT3=
EXTT4=
EXTT5=
EXTT6=
EXTT7=
EXTT8=
EXTT9=
EXTT10=
EXTT11=
EXTT12=
EXTT13=
EXTT14=
EXTT15=
EXTT16=
PLAYORDER=
